<svg xmlns="http://www.w3.org/2000/svg" viewBox="0 0 22 22">
  <g fill-rule="evenodd">
      <path fill="#ffffff" d="M22 11c0-6.07-4.93-11-11-11 -6.07 0-11 4.93-11 11 0 6.07 4.93 11 11 11 6.07 0 11-4.93 11-11Z"/>
      <path fill="#002f7a" d="M22 11c0-6.07-4.93-11-11-11 -6.07 0-11 4.93-11 11 0 6.07 4.93 11 11 11 6.07 0 11-4.93 11-11Zm-1.04-0.02c0-5.51-4.47-9.98-9.98-9.98 -5.51 0-9.98 4.47-9.98 9.98l0 0.05c0 5.51 4.47 9.98 9.98 9.98 5.51 0 9.98-4.47 9.98-9.98l0-0.05Zm-11.91 8.94c-2.32-0.5-4.32-1.9-5.61-3.8l5.61-2.8 0 6.61Zm9.49-3.82c-1.28 1.9-3.26 3.3-5.57 3.81l0-6.59 5.57 2.78Zm-14.08-3.12l-2.07 1.04c-0.12-0.34-0.22-0.68-0.29-1.04l2.37 0Zm15.41 0c-0.08 0.35-0.17 0.69-0.28 1.01l-2.03-1.01 2.32 0Zm0.01-3.92l-2.32 0 2.04-1.02c0.11 0.33 0.21 0.67 0.28 1.02Zm-15.42 0l-2.37 0c0.08-0.35 0.17-0.7 0.29-1.04l2.08 1.04Zm8.51-6.96c2.32 0.52 4.3 1.92 5.58 3.83l-5.58 2.79 0-6.62Zm-3.92 6.62l-5.62-2.81c1.29-1.92 3.29-3.32 5.62-3.82l0 6.64Z"/>
      <path fill="#cf142b" d="M9.83 1.95c0.38-0.05 0.76-0.07 1.15-0.07 0.41 0 0.81 0.03 1.2 0.08l0 7.88 7.83 0c0.05 0.37 0.07 0.75 0.07 1.14l0 0.04c0 0.4-0.02 0.79-0.07 1.17l-7.82 0 0 7.85c-0.39 0.05-0.79 0.08-1.2 0.08 -0.39 0-0.77-0.02-1.15-0.07l0-7.86 -7.88 0c-0.05-0.38-0.07-0.77-0.07-1.17l0-0.04c0-0.39 0.02-0.77 0.07-1.14l7.88 0 0-7.89Zm-6.6 13.84c-0.14-0.22-0.26-0.45-0.38-0.68l4.27-2.13 1.74 0 -5.63 2.81Zm16.22-1.44c-0.1 0.24-0.2 0.48-0.32 0.71l-4.18-2.09 1.74 0 2.76 1.38Zm-0.69-8.09c0.14 0.22 0.26 0.45 0.38 0.68l-4.22 2.11 -1.74 0 5.58-2.79Zm-15.94 0.68l4.23 2.12 -1.74 0 -2.81-1.4c0.1-0.24 0.2-0.48 0.32-0.71Z"/>
  </g>
</svg>
 
