<svg xmlns="http://www.w3.org/2000/svg" viewBox="0 0 111 12" stroke-linejoin="round">
    <path d="M21.8 12l-1 0 0-12 1 0 0 12Zm-13.22-6.56c0 0.83-0.12 1.55-0.36 2.16 -0.24 0.61-0.62 1.11-1.14 1.5 0.12 0.16 0.25 0.29 0.39 0.39 0.14 0.1 0.3 0.14 0.48 0.14 0.11 0 0.23-0.02 0.35-0.07 0.12-0.05 0.21-0.13 0.29-0.23l0.37 0.81c-0.09 0.25-0.27 0.45-0.53 0.62 -0.26 0.17-0.57 0.25-0.91 0.25 -0.26 0-0.5-0.03-0.72-0.1 -0.22-0.06-0.41-0.15-0.58-0.26 -0.17-0.11-0.32-0.24-0.46-0.38 -0.13-0.15-0.26-0.3-0.36-0.47 -0.38 0.07-0.78 0.1-1.21 0.1 -0.63 0-1.2-0.07-1.71-0.21 -0.51-0.14-0.95-0.38-1.32-0.71 -0.37-0.33-0.66-0.77-0.86-1.32 -0.2-0.55-0.31-1.22-0.31-2.02 0-0.73 0.08-1.39 0.24-1.96 0.16-0.57 0.41-1.06 0.76-1.45 0.35-0.39 0.8-0.69 1.36-0.9 0.56-0.21 1.23-0.31 2.01-0.31 0.62 0 1.19 0.07 1.71 0.22 0.52 0.14 0.96 0.39 1.34 0.73 0.37 0.34 0.66 0.8 0.87 1.37 0.2 0.56 0.31 1.27 0.31 2.12Zm44.12-1.74l1.46 0 1.24 3.68 1.21-3.68 1.42 0 -1.83 4.99 -0.33 0.9c-0.12 0.3-0.23 0.53-0.34 0.69 -0.11 0.16-0.23 0.29-0.38 0.39 -0.14 0.1-0.32 0.18-0.52 0.23 -0.21 0.06-0.44 0.08-0.7 0.08 -0.26 0-0.52-0.03-0.78-0.08l-0.12-1.07c0.22 0.04 0.41 0.06 0.58 0.06 0.32 0 0.56-0.09 0.71-0.28 0.15-0.19 0.27-0.42 0.35-0.71l-1.97-5.2Zm-37.96 6.01l-5.13 0 0-1.2c0.67 0 1.01-0.18 1.01-0.53l0-5.06c0-0.35-0.34-0.53-1.01-0.53l0-1.2 5.16 0c0.5 0 0.94 0.04 1.31 0.1 0.38 0.07 0.69 0.2 0.95 0.38 0.25 0.18 0.44 0.44 0.57 0.76 0.12 0.32 0.19 0.74 0.19 1.25 0 1.02-0.25 1.76-0.75 2.21 -0.5 0.45-1.25 0.68-2.26 0.68l-1.29 0 0 1.41c0 0.35 0.42 0.53 1.26 0.53l0 1.2Zm16.05-1.73c0.36 0.25 0.74 0.46 1.16 0.61l-0.53 1.02c-0.22-0.06-0.43-0.15-0.64-0.27 -0.04-0.02-0.37-0.23-0.96-0.63 -0.47 0.21-0.99 0.31-1.56 0.31 -1.1 0-1.96-0.32-2.59-0.97 -0.62-0.65-0.93-1.56-0.93-2.73 0-1.17 0.31-2.08 0.94-2.73 0.63-0.65 1.47-0.97 2.54-0.97 1.06 0 1.9 0.33 2.52 0.97 0.62 0.65 0.93 1.56 0.93 2.73 0 0.62-0.09 1.16-0.26 1.63 -0.13 0.36-0.34 0.71-0.62 1.04Zm52.48-1.29c0.01 0.41 0.12 0.72 0.33 0.95 0.21 0.23 0.48 0.34 0.79 0.34 0.21 0 0.4-0.06 0.54-0.18 0.15-0.12 0.26-0.31 0.33-0.57l1.37 0.23c-0.18 0.5-0.45 0.88-0.83 1.15 -0.38 0.26-0.85 0.39-1.42 0.39 -0.9 0-1.57-0.29-2-0.88 -0.34-0.47-0.51-1.07-0.51-1.79 0-0.86 0.23-1.53 0.67-2.02 0.45-0.49 1.02-0.73 1.7-0.73 0.77 0 1.38 0.25 1.83 0.76 0.45 0.51 0.66 1.29 0.64 2.34l-3.44 0Zm-39.86 2.2l-1.36 0c-0.04-0.09-0.08-0.23-0.13-0.4 -0.02-0.08-0.04-0.13-0.05-0.16 -0.23 0.23-0.48 0.4-0.75 0.51 -0.27 0.11-0.55 0.17-0.85 0.17 -0.53 0-0.95-0.14-1.26-0.43 -0.31-0.29-0.46-0.66-0.46-1.1 0-0.29 0.07-0.55 0.21-0.78 0.14-0.23 0.34-0.41 0.59-0.53 0.25-0.12 0.62-0.23 1.09-0.32 0.64-0.12 1.09-0.23 1.33-0.34l0-0.14c0-0.26-0.07-0.45-0.2-0.56 -0.13-0.11-0.38-0.17-0.74-0.17 -0.24 0-0.43 0.05-0.57 0.14 -0.14 0.1-0.25 0.27-0.33 0.51l-1.25-0.22c0.14-0.5 0.38-0.87 0.72-1.11 0.34-0.24 0.85-0.36 1.52-0.36 0.61 0 1.07 0.07 1.37 0.22 0.3 0.14 0.51 0.33 0.63 0.55 0.12 0.22 0.18 0.63 0.18 1.23l-0.01 1.6c0 0.46 0.02 0.79 0.07 1.01 0.04 0.22 0.13 0.45 0.25 0.7Zm32.24 0l-1.36 0c-0.04-0.09-0.08-0.23-0.13-0.4 -0.02-0.08-0.04-0.13-0.05-0.16 -0.23 0.23-0.48 0.4-0.75 0.51 -0.27 0.11-0.55 0.17-0.85 0.17 -0.53 0-0.95-0.14-1.26-0.43 -0.31-0.29-0.46-0.66-0.46-1.1 0-0.29 0.07-0.55 0.21-0.78 0.14-0.23 0.34-0.41 0.59-0.53 0.25-0.12 0.62-0.23 1.09-0.32 0.64-0.12 1.09-0.23 1.33-0.34l0-0.14c0-0.26-0.06-0.45-0.19-0.56 -0.13-0.11-0.38-0.17-0.74-0.17 -0.24 0-0.43 0.05-0.57 0.14 -0.14 0.1-0.25 0.27-0.33 0.51l-1.25-0.22c0.14-0.5 0.38-0.87 0.72-1.11 0.34-0.24 0.85-0.36 1.52-0.36 0.61 0 1.07 0.07 1.37 0.22 0.3 0.14 0.51 0.33 0.63 0.55 0.12 0.22 0.18 0.63 0.18 1.23l-0.01 1.6c0 0.46 0.02 0.79 0.07 1.01 0.04 0.22 0.13 0.45 0.25 0.7Zm22.08-2.2c0.01 0.41 0.12 0.72 0.33 0.95 0.21 0.23 0.48 0.34 0.79 0.34 0.22 0 0.4-0.06 0.54-0.18 0.15-0.12 0.26-0.31 0.33-0.57l1.37 0.23c-0.18 0.5-0.45 0.88-0.83 1.15 -0.38 0.26-0.85 0.39-1.42 0.39 -0.9 0-1.57-0.29-2-0.88 -0.34-0.47-0.51-1.07-0.51-1.79 0-0.86 0.23-1.53 0.67-2.02 0.45-0.49 1.02-0.73 1.7-0.73 0.77 0 1.38 0.25 1.83 0.76 0.45 0.51 0.66 1.29 0.64 2.34l-3.44 0Zm-60.24 2.2l-1.27 0 0-0.78c-0.19 0.28-0.44 0.5-0.74 0.65 -0.31 0.16-0.63 0.24-0.97 0.24 -0.35 0-0.66-0.08-0.94-0.23 -0.28-0.15-0.48-0.37-0.6-0.64 -0.12-0.28-0.18-0.66-0.18-1.15l0-3.28 1.37 0 0 2.38c0 0.73 0.03 1.18 0.08 1.34 0.05 0.16 0.14 0.29 0.28 0.39 0.13 0.1 0.3 0.14 0.51 0.14 0.23 0 0.44-0.06 0.63-0.19 0.19-0.13 0.31-0.29 0.38-0.48 0.07-0.19 0.1-0.66 0.1-1.4l0-2.19 1.37 0 0 5.19Zm72.34-5.18l0.94 0 0 1.09 -0.94 0 0 2.09c0 0.42 0.01 0.67 0.03 0.74 0.02 0.07 0.06 0.13 0.12 0.17 0.06 0.05 0.14 0.07 0.23 0.07 0.13 0 0.31-0.04 0.55-0.13l0.12 1.06c-0.32 0.14-0.68 0.21-1.08 0.21 -0.25 0-0.47-0.04-0.67-0.12 -0.2-0.08-0.34-0.19-0.44-0.32 -0.09-0.13-0.16-0.31-0.19-0.53 -0.03-0.16-0.04-0.48-0.04-0.97l0-2.26 -0.63 0 0-1.09 0.63 0 0-1.03 1.38-0.8 0 1.83Zm-58.36 0l0.94 0 0 1.09 -0.94 0 0 2.09c0 0.42 0.01 0.67 0.03 0.74 0.02 0.07 0.06 0.13 0.12 0.17 0.06 0.05 0.14 0.07 0.23 0.07 0.13 0 0.31-0.04 0.55-0.13l0.12 1.06c-0.32 0.14-0.68 0.21-1.08 0.21 -0.25 0-0.47-0.04-0.67-0.12 -0.2-0.08-0.34-0.19-0.44-0.32 -0.09-0.13-0.16-0.31-0.19-0.53 -0.03-0.16-0.04-0.48-0.04-0.97l0-2.26 -0.63 0 0-1.09 0.63 0 0-1.03 1.38-0.8 0 1.83Zm29.76 1.53l-1.35 0.24c-0.05-0.27-0.15-0.47-0.31-0.61 -0.16-0.14-0.37-0.2-0.63-0.2 -0.34 0-0.61 0.12-0.82 0.35 -0.2 0.24-0.3 0.63-0.3 1.18 0 0.62 0.1 1.05 0.31 1.3 0.21 0.25 0.48 0.38 0.83 0.38 0.26 0 0.47-0.07 0.64-0.22 0.17-0.15 0.28-0.4 0.35-0.76l1.35 0.23c-0.14 0.62-0.41 1.09-0.81 1.4 -0.4 0.32-0.93 0.47-1.6 0.47 -0.76 0-1.36-0.24-1.81-0.72 -0.45-0.48-0.68-1.14-0.68-1.99 0-0.86 0.23-1.52 0.68-2 0.45-0.48 1.07-0.71 1.84-0.71 0.63 0 1.13 0.14 1.51 0.41 0.37 0.27 0.64 0.69 0.8 1.24Zm-32.61 3.65l-1.37 0 0-5.18 1.37 0 0 5.19Zm14.53 0l-1.44 0 0-7.16 2.32 0c0.88 0 1.45 0.04 1.72 0.11 0.41 0.11 0.75 0.34 1.03 0.7 0.28 0.36 0.42 0.83 0.42 1.39 0 0.44-0.08 0.81-0.24 1.11 -0.16 0.3-0.36 0.53-0.61 0.71 -0.24 0.17-0.49 0.28-0.75 0.34 -0.34 0.07-0.84 0.1-1.5 0.1l-0.94 0 0 2.7Zm40.49 0l-1.37 0 0-5.18 1.27 0 0 0.76c0.45-0.58 1.02-0.88 1.71-0.88 0.3 0 0.58 0.05 0.83 0.16 0.25 0.11 0.44 0.25 0.57 0.42 0.13 0.17 0.22 0.36 0.27 0.58 0.05 0.22 0.08 0.52 0.08 0.92l0 3.22 -1.37 0 0-2.65c0-0.56-0.03-0.92-0.09-1.09 -0.06-0.16-0.15-0.29-0.29-0.38 -0.13-0.09-0.29-0.14-0.48-0.14 -0.24 0-0.45 0.07-0.64 0.2 -0.19 0.13-0.32 0.3-0.39 0.52 -0.07 0.22-0.1 0.61-0.1 1.19l0 2.35Zm-33.91 0l-1.37 0 0-7.16 1.37 0 0 7.16Zm-23.9 0l-1.37 0 0-7.16 1.37 0 0 7.16Zm43.26 0l-1.37 0 0-5.18 1.26 0 0 0.71c0.45-0.55 0.99-0.82 1.62-0.82 0.33 0 0.62 0.07 0.87 0.21 0.24 0.14 0.44 0.34 0.6 0.62 0.23-0.28 0.47-0.48 0.74-0.62 0.26-0.14 0.55-0.2 0.84-0.2 0.38 0 0.7 0.08 0.97 0.23 0.26 0.16 0.46 0.38 0.59 0.68 0.09 0.22 0.14 0.58 0.14 1.07l0 3.32 -1.37 0 0-2.96c0-0.51-0.05-0.85-0.14-1 -0.13-0.19-0.32-0.29-0.59-0.29 -0.19 0-0.37 0.06-0.54 0.18 -0.17 0.12-0.29 0.29-0.37 0.52 -0.07 0.23-0.11 0.58-0.11 1.07l0 2.49 -1.37 0 0-2.84c0-0.5-0.02-0.83-0.07-0.98 -0.05-0.15-0.12-0.26-0.23-0.33 -0.1-0.07-0.24-0.11-0.42-0.11 -0.21 0-0.4 0.06-0.57 0.17 -0.17 0.11-0.29 0.28-0.36 0.49 -0.07 0.22-0.11 0.57-0.11 1.07l0 2.52Zm-84.89-0.32c0.23 0 0.41-0.03 0.54-0.08 -0.14-0.3-0.28-0.55-0.42-0.76 -0.14-0.21-0.32-0.31-0.54-0.31 -0.13 0-0.24 0.05-0.35 0.14 -0.1 0.09-0.18 0.22-0.21 0.38 0.13 0.24 0.28 0.41 0.44 0.5 0.17 0.09 0.35 0.13 0.54 0.13Zm69.8-2.17c-0.18 0.06-0.45 0.13-0.83 0.21 -0.38 0.08-0.63 0.16-0.75 0.24 -0.18 0.13-0.27 0.29-0.27 0.48 0 0.19 0.07 0.36 0.22 0.5 0.14 0.14 0.33 0.21 0.55 0.21 0.25 0 0.48-0.08 0.71-0.24 0.17-0.12 0.28-0.28 0.33-0.45 0.04-0.12 0.05-0.34 0.05-0.67l0-0.27Zm-32.24 0c-0.18 0.06-0.45 0.13-0.83 0.21 -0.38 0.08-0.63 0.16-0.75 0.24 -0.18 0.13-0.27 0.29-0.27 0.48 0 0.19 0.07 0.36 0.22 0.5 0.14 0.14 0.33 0.21 0.55 0.21 0.25 0 0.48-0.08 0.71-0.24 0.17-0.12 0.28-0.28 0.33-0.45 0.04-0.12 0.05-0.34 0.05-0.67l0-0.27Zm-12.14 0.77c0.19-0.22 0.33-0.48 0.42-0.79 0.09-0.31 0.14-0.66 0.14-1.06 0-0.83-0.18-1.44-0.55-1.85 -0.36-0.41-0.84-0.61-1.43-0.61 -0.59 0-1.07 0.21-1.43 0.62 -0.37 0.41-0.55 1.03-0.55 1.85 0 0.84 0.18 1.46 0.55 1.88 0.37 0.42 0.83 0.62 1.39 0.62 0.21 0 0.41-0.03 0.59-0.1 -0.29-0.19-0.59-0.34-0.89-0.45l0.41-0.82c0.48 0.16 0.93 0.41 1.36 0.73Zm-25.43-0.93c0.34 0 0.63 0.06 0.87 0.19 0.24 0.13 0.45 0.29 0.64 0.49 0.03-0.19 0.05-0.4 0.07-0.63 0.02-0.23 0.02-0.48 0.02-0.76 0-0.62-0.03-1.12-0.1-1.52 -0.07-0.39-0.16-0.7-0.28-0.93 -0.12-0.23-0.26-0.38-0.43-0.46 -0.17-0.08-0.36-0.13-0.56-0.13 -0.26 0-0.48 0.04-0.68 0.12 -0.2 0.08-0.37 0.22-0.51 0.42 -0.14 0.2-0.24 0.47-0.32 0.8 -0.07 0.34-0.11 0.76-0.11 1.27 0 0.39 0.01 0.74 0.03 1.04 0.02 0.31 0.05 0.58 0.09 0.81 0.14-0.26 0.32-0.45 0.55-0.56 0.23-0.11 0.47-0.17 0.72-0.17Zm81.15-0.39c-0.01-0.4-0.11-0.7-0.31-0.91 -0.19-0.21-0.43-0.31-0.71-0.31 -0.3 0-0.55 0.11-0.74 0.33 -0.19 0.22-0.29 0.52-0.29 0.89l2.05 0Zm14.45 0c-0.01-0.4-0.11-0.7-0.31-0.91 -0.19-0.21-0.43-0.31-0.71-0.31 -0.3 0-0.55 0.11-0.74 0.33 -0.19 0.22-0.29 0.52-0.29 0.89l2.05 0Zm-85.89-3.17l-0.42 0 0 2.4 0.42 0c0.25 0 0.45-0.02 0.61-0.07 0.16-0.05 0.29-0.12 0.39-0.23 0.1-0.11 0.17-0.25 0.2-0.43 0.04-0.18 0.06-0.4 0.06-0.67 0-0.31-0.09-0.56-0.26-0.73 -0.17-0.18-0.51-0.26-1-0.26Zm49.94 0.26l-0.7 0 0 2.03 0.79 0c0.57 0 0.95-0.04 1.14-0.11 0.19-0.07 0.34-0.19 0.45-0.35 0.11-0.16 0.16-0.34 0.16-0.56 0-0.26-0.08-0.48-0.23-0.64 -0.15-0.17-0.35-0.28-0.58-0.32 -0.17-0.03-0.52-0.05-1.04-0.05Zm-15.23 0.06l-1.37 0 0-1.27 1.37 0 0 1.27Z" fill="#525252"/>
</svg>